{"title":"Schuld.sind.immer.die.anderen.2012.DVDRip.XviD","uid":11839205,"size":1472328559,"categoryP":"video","categoryS":"movies","magnet":"?xt=urn:btih:775fd98c0ddd3d8e07c168078fad77ce69697045&amp;dn=Schuld.sind.immer.die.anderen.2012.DVDRip.XviD&amp;tr=udp%3A%2F%2Ftracker.openbittorrent.com%3A80&amp;tr=udp%3A%2F%2Fopen.demonii.com%3A1337&amp;tr=udp%3A%2F%2Ftracker.coppersurfer.tk%3A6969&amp;tr=udp%3A%2F%2Fexodus.desync.com%3A6969","seeders":7,"leechers":1,"uploader":"pamis2046","files":3,"time":1429817515,"description":"Schuld sind immer die Anderen (2012)\nRuntime: 88'\n\nLanguage: German\nSubtitles: English, Portuguese\n\nCountry: Germany\nGenre: Drama\n\nDirector: Lars-Gunnar Lotz\n\nIn a project with the concept of open-prison, Benjamin is given the unique chance of a new beginning. As one of seven juvenile offenders he should adopt social skills and experience security in a family-like community. But when he meets his house-mother Eva, he is shocked. She was one of his victims, but cannot recognize him because he was hidden by a mask. His brutal assault on her was never resolved. Ben does his best not to attract attention. But Eva's suspicion is aroused.\n\nPoster:\n &lt;a href=&quot;\nhttp://i1238.photobucket.com/albums/ff491/pamis2046/O%20Peso...00_zpstloobjzl.jpg&quot; rel=&quot;nofollow&quot; target=&quot;_NEW&quot;&gt;\nhttp://i1238.photobucket.com/albums/ff491/pamis2046/O%20Peso...00_zpstloobjzl.jpg&lt;/a&gt;\n\nScreenshots:\n &lt;a href=&quot;\nhttp://i1238.photobucket.com/albums/ff491/pamis2046/O%20Peso...01_zpsn3bmw4wr.jpg&quot; rel=&quot;nofollow&quot; target=&quot;_NEW&quot;&gt;\nhttp://i1238.photobucket.com/albums/ff491/pamis2046/O%20Peso...01_zpsn3bmw4wr.jpg&lt;/a&gt;\n &lt;a href=&quot;\nhttp://i1238.photobucket.com/albums/ff491/pamis2046/O%20Peso...02_zpsetnwxqc0.jpg&quot; rel=&quot;nofollow&quot; target=&quot;_NEW&quot;&gt;\nhttp://i1238.photobucket.com/albums/ff491/pamis2046/O%20Peso...02_zpsetnwxqc0.jpg&lt;/a&gt;\n &lt;a href=&quot;\nhttp://i1238.photobucket.com/albums/ff491/pamis2046/O%20Peso...08_zpspfklofxh.jpg&quot; rel=&quot;nofollow&quot; target=&quot;_NEW&quot;&gt;\nhttp://i1238.photobucket.com/albums/ff491/pamis2046/O%20Peso...08_zpspfklofxh.jpg&lt;/a&gt;\n &lt;a href=&quot;\nhttp://i1238.photobucket.com/albums/ff491/pamis2046/O%20Peso...05_zpsc4ftjtc2.jpg&quot; rel=&quot;nofollow&quot; target=&quot;_NEW&quot;&gt;\nhttp://i1238.photobucket.com/albums/ff491/pamis2046/O%20Peso...05_zpsc4ftjtc2.jpg&lt;/a&gt;\n &lt;a href=&quot;\nhttp://i1238.photobucket.com/albums/ff491/pamis2046/O%20Peso...07_zpsregtonw7.jpg&quot; rel=&quot;nofollow&quot; target=&quot;_NEW&quot;&gt;\nhttp://i1238.photobucket.com/albums/ff491/pamis2046/O%20Peso...07_zpsregtonw7.jpg&lt;/a&gt;\n &lt;a href=&quot;\nhttp://i1238.photobucket.com/albums/ff491/pamis2046/O%20Peso...04_zpshecvksyk.jpg&quot; rel=&quot;nofollow&quot; target=&quot;_NEW&quot;&gt;\nhttp://i1238.photobucket.com/albums/ff491/pamis2046/O%20Peso...04_zpshecvksyk.jpg&lt;/a&gt;\n &lt;a href=&quot;\nhttp://i1238.photobucket.com/albums/ff491/pamis2046/O%20Peso...06_zps9chjnzni.jpg&quot; rel=&quot;nofollow&quot; target=&quot;_NEW&quot;&gt;\nhttp://i1238.photobucket.com/albums/ff491/pamis2046/O%20Peso...06_zps9chjnzni.jpg&lt;/a&gt;\n &lt;a href=&quot;\nhttp://i1238.photobucket.com/albums/ff491/pamis2046/O%20Peso...03_zpsxsbhp0zt.jpg&quot; rel=&quot;nofollow&quot; target=&quot;_NEW&quot;&gt;\nhttp://i1238.photobucket.com/albums/ff491/pamis2046/O%20Peso...03_zpsxsbhp0zt.jpg&lt;/a&gt;\n\nFormat                                   : AVI\nFormat/Info                              : Audio Video Interleave\nFile size                                : 1.37 GiB\nDuration                                 : 1h 28mn\nOverall bit rate                         : 2 208 Kbps\nWriting application                      : VirtualDubMod 1.5.10.3 | www.virtualdub-fr.org || (build 2550/release)\nWriting library                          : VirtualDubMod build 2550/release\n\nVideo\nID                                       : 0\nFormat                                   : MPEG-4 Visual\nFormat profile                           : Advanced Simple@L5\nFormat settings, BVOP                    : 1\nFormat settings, QPel                    : No\nFormat settings, GMC                     : No warppoints\nFormat settings, Matrix                  : Default (MPEG)\nCodec ID                                 : XVID\nCodec ID/Hint                            : XviD\nDuration                                 : 1h 28mn\nBit rate                                 : 1 942 Kbps\nWidth                                    : 720 pixels\nHeight                                   : 384 pixels\nDisplay aspect ratio                     : 1.85:1\nFrame rate                               : 25.000 fps\nColor space                              : YUV\nChroma subsampling                       : 4:2:0\nBit depth                                : 8 bits\nScan type                                : Progressive\nCompression mode                         : Lossy\nBits/(Pixel*Frame)                       : 0.281\nStream size                              : 1.21 GiB (88%)\nWriting library                          : XviD 1.2.1 (UTC 2008-12-04)\n\nAudio\nID                                       : 1\nFormat                                   : AC-3\nFormat/Info                              : Audio Coding 3\nMode extension                           : CM (complete main)\nFormat settings, Endianness              : Big\nCodec ID                                 : 2000\nDuration                                 : 1h 28mn\nBit rate mode                            : Constant\nBit rate                                 : 256 Kbps\nChannel(s)                               : 2 channels\nChannel positions                        : Front: L R\nSampling rate                            : 48.0 KHz\nBit depth                                : 16 bits\nCompression mode                         : Lossy\nStream size                              : 163 MiB (12%)\nAlignment                                : Split accross interleaves\nInterleave, duration                     : 40 ms (1.00 video frame)\nInterleave, preload duration             : 500 ms","torrent":{"xt":"urn:btih:775fd98c0ddd3d8e07c168078fad77ce69697045","amp;dn":"Schuld.sind.immer.die.anderen.2012.DVDRip.XviD","amp;tr":["udp%3A%2F%2Ftracker.openbittorrent.com%3A80","udp%3A%2F%2Fopen.demonii.com%3A1337","udp%3A%2F%2Ftracker.coppersurfer.tk%3A6969","udp%3A%2F%2Fexodus.desync.com%3A6969"],"infoHash":"775fd98c0ddd3d8e07c168078fad77ce69697045","infoHashBuffer":{"type":"Buffer","data":[119,95,217,140,13,221,61,142,7,193,104,7,143,173,119,206,105,105,112,69]},"announce":[],"urlList":[]}}